<?xml version="1.0" encoding="UTF-8" standalone="no"?>
<svg
   xmlns:dc="http://purl.org/dc/elements/1.1/"
   xmlns:cc="http://creativecommons.org/ns#"
   xmlns:rdf="http://www.w3.org/1999/02/22-rdf-syntax-ns#"
   xmlns:svg="http://www.w3.org/2000/svg"
   xmlns="http://www.w3.org/2000/svg"
   xmlns:sodipodi="http://sodipodi.sourceforge.net/DTD/sodipodi-0.dtd"
   xmlns:inkscape="http://www.inkscape.org/namespaces/inkscape"
   height="300px"
   width="300px"
   fill="#000000"
   data-name="Layer 1"
   viewBox="0 0 100 100"
   x="0px"
   y="0px"
   version="1.1"
   id="svg18"
   sodipodi:docname="flying-bottle.svg"
   inkscape:version="0.92.3 (2405546, 2018-03-11)">
  <metadata
     id="metadata24">
    <rdf:RDF>
      <cc:Work
         rdf:about="">
        <dc:format>image/svg+xml</dc:format>
        <dc:type
           rdf:resource="http://purl.org/dc/dcmitype/StillImage" />
        <dc:title>Flying Bottle</dc:title>
      </cc:Work>
    </rdf:RDF>
  </metadata>
  <defs
     id="defs22">
    <style
       id="style859"
       type="text/css">
   
    .fil0 {fill:#000000}
   
  </style>
  </defs>
  <sodipodi:namedview
     pagecolor="#ffffff"
     bordercolor="#666666"
     borderopacity="1"
     objecttolerance="10"
     gridtolerance="10"
     guidetolerance="10"
     inkscape:pageopacity="0"
     inkscape:pageshadow="2"
     inkscape:window-width="1411"
     inkscape:window-height="966"
     id="namedview20"
     showgrid="true"
     inkscape:zoom="2.2250293"
     inkscape:cx="60.681666"
     inkscape:cy="154.13099"
     inkscape:window-x="943"
     inkscape:window-y="328"
     inkscape:window-maximized="0"
     inkscape:current-layer="svg18">
    <inkscape:grid
       type="xygrid"
       id="grid878" />
  </sodipodi:namedview>
  <title
     id="title2">Flying Bottle</title>
  <g
     id="g887"
     inkscape:label="fins">
    <path
       inkscape:label="wing-2"
       style="fill:#000000;stroke:none"
       id="path6"
       d="m 27.74,52 0.72,-1.52 A 100.24,100.24 0 0 1 34.9,38.94 L 22,40.41 12,59.91 24.14,52.86 Z"
       inkscape:connector-curvature="0" />
    <path
       inkscape:label="wing-1"
       style="fill:#000000;stroke:none"
       id="path8"
       d="M 47.84,72.13 47.27,76 40.22,88.13 59.73,78.13 61.24,64.78 A 98.42,98.42 0 0 1 49.36,71.43 Z"
       inkscape:connector-curvature="0" />
  </g>
  <path
     d="m 29.547755,52.627425 17.7,17.7 C 69.310113,57.722904 79.150111,43.462903 83.474523,32.354034 c 1.081103,-2.777217 8.029031,1.022692 8.525478,-1.285532 L 68.4787,7.4493525 C 66.119552,7.9175367 69.89264,15.103764 67.076266,16.162976 55.81077,20.399826 41.54577,30.234826 29.547755,52.627425 Z m 40.296711,-11.13671 c -5.098624,5.090562 -13.805574,1.478975 -13.805574,-5.725001 0,-7.203975 8.706967,-10.815579 13.805574,-5.725 3.165338,3.160388 3.165355,8.28963 0,11.450001 z"
     id="path10"
     inkscape:connector-curvature="0"
     style="display:inline;fill:#000000;stroke:none"
     sodipodi:nodetypes="ccsccscssss"
     inkscape:label="bottle" />
  <path
     inkscape:connector-curvature="0"
     d="m 22.483922,74.767602 a 75.694547,75.694547 0 0 0 -5.242004,5.836099 44.76672,44.76672 0 0 0 -4.525599,6.56998 44.76672,44.76672 0 0 0 6.56998,-4.525599 75.694547,75.694547 0 0 0 5.836099,-5.242004 A 77.039995,77.039995 0 0 0 30.364402,71.56998 45.290921,45.290921 0 0 0 34.89,65 a 45.290921,45.290921 0 0 0 -6.56998,4.525598 77.039995,77.039995 0 0 0 -5.836098,5.242004 z"
     id="path889"
     style="display:inline;fill:none;stroke:#000000;stroke-width:1.74733484"
     inkscape:label="big-flame" />
  <g
     id="g883"
     inkscape:label="flames"
     style="display:none">
    <path
       inkscape:label="flame-1"
       style="display:none;fill:none;stroke:#000000"
       id="path12"
       d="m 21.38,64.35 a 37.11,37.11 0 0 0 3.19,-2.62 22,22 0 0 0 2.84,-3.1 22,22 0 0 0 -3.81,1.77 37.14,37.14 0 0 0 -3.46,2.25 36.47,36.47 0 0 0 -3.19,2.61 21.75,21.75 0 0 0 -2.84,3.1 21.75,21.75 0 0 0 3.81,-1.76 36.48,36.48 0 0 0 3.46,-2.25 z"
       inkscape:connector-curvature="0" />
    <path
       inkscape:label="flame-2"
       style="display:inline;fill:none;stroke:#000000"
       id="path14"
       d="m 23.05,75.33 a 43.32,43.32 0 0 0 -3,3.34 25.62,25.62 0 0 0 -2.59,3.76 25.62,25.62 0 0 0 3.76,-2.59 43.32,43.32 0 0 0 3.34,-3 44.09,44.09 0 0 0 3,-3.34 25.92,25.92 0 0 0 2.59,-3.76 25.92,25.92 0 0 0 -3.76,2.59 44.09,44.09 0 0 0 -3.34,3 z"
       inkscape:connector-curvature="0" />
    <path
       inkscape:label="flame-3"
       style="display:inline;fill:none;stroke:#000000"
       id="path16"
       d="m 38.13,75.3 a 37.11,37.11 0 0 0 -2.62,3.19 36.48,36.48 0 0 0 -2.24,3.51 21.75,21.75 0 0 0 -1.76,3.81 21.75,21.75 0 0 0 3.1,-2.84 36.47,36.47 0 0 0 2.61,-3.19 37.14,37.14 0 0 0 2.25,-3.46 22,22 0 0 0 1.77,-3.81 22,22 0 0 0 -3.11,2.79 z"
       inkscape:connector-curvature="0" />
  </g>
</svg>
